<?xml version="1.0" encoding="utf-8"?>
<!-- Generator: Adobe Illustrator 21.0.0, SVG Export Plug-In . SVG Version: 6.00 Build 0)  -->
<svg version="1.1" id="Capa_1" xmlns="http://www.w3.org/2000/svg" xmlns:xlink="http://www.w3.org/1999/xlink" x="0px" y="0px"
	 viewBox="0 0 257.6 257.6" style="enable-background:new 0 0 257.6 257.6;" xml:space="preserve">
<style type="text/css">
	.st0{fill:#FFFFFF;}
	.st1{display:none;}
	.st2{display:inline;}
	.st3{display:none;fill:#FFFFFF;}
	.st4{font-family:'Roboto-Regular';}
	.st5{font-size:376px;}
	.st6{letter-spacing:-33;}
</style>
<circle class="st0" cx="128.8" cy="128.8" r="128.8"/>
<g>
	<path d="M157.7,3.3c-9.3-2.1-19-3.3-28.9-3.3c-23.6,0-45.6,6.3-64.6,17.4c0,55,0,110,0,164.9c0,12.8-2.3,25.1-7.8,36.7
		c-1.9,4.1-4.2,7.9-6.7,11.3c5.4,4.2,11.1,8,17.1,11.3c26.5-69.4,53-138.7,79.5-208.1C150,23.5,153.9,13.4,157.7,3.3z"/>
	<path d="M232.3,188.1c-36.2,0-72.4,0-108.6,0c-1.2,0-1.8,0.3-2.2,1.5c-7.7,21.5-15.5,42.9-23.2,64.4c9.8,2.4,20,3.7,30.6,3.7
		c45.7,0,85.9-23.8,108.8-59.8c-1-2.7-2-5.4-3-8.2C234.2,188.4,233.6,188.1,232.3,188.1z"/>
	<path d="M28.7,182.3c0.1-13.2,0.1-26.3,0.1-39.5c0-31.8,0-63.5,0-95.3C10.8,69.8,0,98,0,128.8c0,28.2,9.1,54.4,24.5,75.6
		c0.8-1.9,1.4-3.8,2-5.9C28,193.3,28.7,187.8,28.7,182.3z"/>
	<path d="M257.6,128.8c0-41.6-19.8-78.7-50.4-102.2c16.1,42,32.1,84,48.2,126.1C256.9,144.9,257.6,137,257.6,128.8z"/>
	<path d="M177.8,34.5c-15,41.5-30.1,82.9-45.2,124.5c30.3,0,60.5,0,90.8,0c-15.2-41.6-30.3-83.1-45.4-124.5
		C178,34.5,177.9,34.5,177.8,34.5z"/>
	<path d="M24.5,204.4"/>
	<path d="M24.5,204.4"/>
</g>
<g class="st1">
	<g class="st2">
		<path d="M295.6,257.9c-0.6,0-0.9,0-1.3,0c-11.2,0-22.4,0-33.6,0c-0.9,0-1.3-0.3-1.6-1.1c-8.1-22.4-16.3-44.7-24.5-67.1
			c-0.5-1.3-1-1.7-2.4-1.7c-36.2,0-72.4,0-108.6,0c-1.2,0-1.8,0.3-2.2,1.5c-8,22.4-16.1,44.7-24.1,67.1c-0.3,0.9-0.7,1.3-1.8,1.3
			c-11.2,0-22.5,0-33.7,0c-0.4,0-0.8,0-1.3,0c1-2.6,1.9-5,2.8-7.4c27.6-72.3,55.2-144.6,82.8-216.8c5.3-13.9,10.7-27.9,16-41.9
			c0.3-0.9,0.7-1.2,1.7-1.2c9.5,0,19,0,28.4,0c0.9,0,1.3,0.3,1.6,1.1C217,52.2,240.1,112.6,263.2,173c10.7,27.9,21.3,55.7,32,83.6
			C295.3,257,295.5,257.3,295.6,257.9z M178.1,34.5c-0.1,0-0.2,0-0.3,0c-15,41.5-30.1,82.9-45.2,124.5c30.3,0,60.5,0,90.8,0
			C208.3,117.4,193.2,76,178.1,34.5z"/>
		<path d="M-104.5,184.2c11.8,0,23.5,0,35.2,0c0.1,1.9,0.2,3.8,0.3,5.7c0.5,7.2,2.1,14.1,5.5,20.5c4.8,9.1,11.9,15.5,21.6,18.9
			c12.3,4.3,25,5,37.5,1.4c16.3-4.7,26.4-15.8,31-32c1.5-5.3,2.2-10.7,2.2-16.2c0.1-13.2,0.1-26.3,0.1-39.5c0-50.1,0-100.2,0-150.3
			c0-0.6,0-1.2,0-1.9c11.8,0,23.5,0,35.3,0c0,0.5,0,0.9,0,1.4c0,63.4,0,126.9,0,190.3c0,12.8-2.3,25.1-7.8,36.7
			c-6.7,14.2-17.3,24.8-31.1,32.3c-9.2,5-19.1,7.8-29.5,9.2c-9.7,1.3-19.4,1.3-29.1,0.4c-13.8-1.3-27-4.7-38.9-12.1
			c-15.9-9.9-25.7-24.2-30-42.4c-1.6-6.8-2.2-13.7-2.4-20.7C-104.5,185.3-104.5,184.8-104.5,184.2z"/>
	</g>
</g>
<text transform="matrix(1 0 0 1 -114.471 257.6475)" class="st3 st4 st5 st6">JA</text>
</svg>
